<?xml version="1.0" encoding="UTF-8"?>
<svg xmlns="http://www.w3.org/2000/svg" xmlns:xlink="http://www.w3.org/1999/xlink" width="34px" height="34px" viewBox="0 0 34 34" version="1.1">
<g id="surface1">
<path style=" stroke:none;fill-rule:nonzero;fill:rgb(0%,0%,0%);fill-opacity:1;" d="M 22.90625 28.53125 C 22.730469 28.421875 22.574219 28.277344 22.453125 28.105469 C 22.398438 28.023438 22.347656 27.9375 22.308594 27.851562 L 2.289062 27.851562 L 2.289062 8.117188 L 29.464844 8.117188 L 29.464844 21.003906 C 30.042969 21.054688 30.53125 21.4375 30.734375 21.957031 C 30.917969 21.859375 31.117188 21.796875 31.328125 21.78125 C 31.472656 21.765625 31.617188 21.777344 31.753906 21.804688 L 31.753906 3.203125 C 31.753906 2.152344 30.898438 1.292969 29.84375 1.292969 L 1.90625 1.292969 C 0.855469 1.292969 0 2.152344 0 3.203125 L 0 28.234375 C 0 29.285156 0.855469 30.140625 1.90625 30.140625 L 22.730469 30.140625 C 22.570312 29.8125 22.53125 29.441406 22.625 29.082031 C 22.679688 28.878906 22.777344 28.691406 22.90625 28.53125 Z M 27.367188 4.5 C 27.367188 4.109375 27.683594 3.792969 28.074219 3.792969 L 28.777344 3.792969 C 29.167969 3.792969 29.480469 4.109375 29.480469 4.5 L 29.480469 5.296875 C 29.480469 5.6875 29.167969 6.003906 28.777344 6.003906 L 28.074219 6.003906 C 27.683594 6.003906 27.367188 5.6875 27.367188 5.296875 Z M 24.09375 4.5 C 24.09375 4.109375 24.40625 3.792969 24.796875 3.792969 L 25.5 3.792969 C 25.890625 3.792969 26.207031 4.109375 26.207031 4.5 L 26.207031 5.296875 C 26.207031 5.6875 25.890625 6.003906 25.5 6.003906 L 24.796875 6.003906 C 24.40625 6.003906 24.09375 5.6875 24.09375 5.296875 Z M 20.816406 4.5 C 20.816406 4.109375 21.132812 3.792969 21.519531 3.792969 L 22.226562 3.792969 C 22.613281 3.792969 22.929688 4.109375 22.929688 4.5 L 22.929688 5.296875 C 22.929688 5.6875 22.613281 6.003906 22.226562 6.003906 L 21.519531 6.003906 C 21.132812 6.003906 20.816406 5.6875 20.816406 5.296875 Z M 20.816406 4.5 "/>
<path style=" stroke:none;fill-rule:nonzero;fill:rgb(0%,0%,0%);fill-opacity:1;" d="M 33.996094 27.1875 L 33.785156 25.984375 C 33.753906 25.824219 33.601562 25.714844 33.4375 25.742188 L 32.371094 25.933594 C 32.242188 25.632812 32.078125 25.347656 31.886719 25.089844 L 32.582031 24.261719 C 32.632812 24.199219 32.65625 24.121094 32.652344 24.042969 C 32.644531 23.964844 32.605469 23.890625 32.546875 23.839844 L 31.613281 23.058594 C 31.550781 23.007812 31.472656 22.980469 31.394531 22.988281 C 31.316406 22.996094 31.242188 23.035156 31.191406 23.09375 L 30.496094 23.925781 C 30.210938 23.78125 29.902344 23.667969 29.582031 23.59375 L 29.582031 22.507812 C 29.582031 22.34375 29.449219 22.210938 29.285156 22.210938 L 28.066406 22.210938 C 27.902344 22.210938 27.769531 22.34375 27.769531 22.507812 L 27.769531 23.59375 C 27.449219 23.667969 27.144531 23.78125 26.855469 23.925781 L 26.160156 23.09375 C 26.054688 22.96875 25.867188 22.953125 25.742188 23.058594 L 24.808594 23.839844 C 24.746094 23.890625 24.707031 23.964844 24.703125 24.042969 C 24.695312 24.121094 24.71875 24.199219 24.769531 24.261719 L 25.46875 25.089844 C 25.273438 25.347656 25.109375 25.632812 24.980469 25.933594 L 23.914062 25.742188 C 23.753906 25.714844 23.597656 25.824219 23.570312 25.984375 L 23.359375 27.1875 C 23.34375 27.261719 23.363281 27.34375 23.40625 27.40625 C 23.453125 27.472656 23.519531 27.515625 23.597656 27.53125 L 24.667969 27.71875 C 24.683594 28.050781 24.742188 28.371094 24.835938 28.675781 L 23.894531 29.21875 C 23.828125 29.257812 23.777344 29.320312 23.757812 29.398438 C 23.738281 29.472656 23.746094 29.554688 23.789062 29.625 L 24.398438 30.679688 C 24.4375 30.746094 24.5 30.796875 24.578125 30.816406 C 24.601562 30.824219 24.628906 30.828125 24.652344 30.828125 C 24.707031 30.828125 24.757812 30.8125 24.804688 30.789062 L 25.742188 30.246094 C 25.964844 30.480469 26.214844 30.691406 26.484375 30.871094 L 26.113281 31.890625 C 26.089844 31.964844 26.089844 32.042969 26.125 32.117188 C 26.160156 32.1875 26.21875 32.242188 26.292969 32.269531 L 27.4375 32.6875 C 27.472656 32.699219 27.503906 32.707031 27.539062 32.707031 C 27.582031 32.707031 27.625 32.695312 27.664062 32.675781 C 27.738281 32.644531 27.792969 32.582031 27.820312 32.507812 L 28.191406 31.488281 C 28.347656 31.507812 28.511719 31.519531 28.675781 31.519531 C 28.839844 31.519531 29.003906 31.507812 29.160156 31.488281 L 29.53125 32.507812 C 29.558594 32.582031 29.613281 32.644531 29.6875 32.675781 C 29.726562 32.695312 29.769531 32.707031 29.8125 32.707031 C 29.847656 32.707031 29.878906 32.699219 29.914062 32.6875 L 31.058594 32.269531 C 31.132812 32.242188 31.191406 32.1875 31.226562 32.117188 C 31.261719 32.042969 31.261719 31.964844 31.238281 31.890625 L 30.867188 30.871094 C 31.136719 30.691406 31.386719 30.480469 31.609375 30.246094 L 32.546875 30.789062 C 32.59375 30.8125 32.644531 30.828125 32.695312 30.828125 C 32.722656 30.828125 32.75 30.824219 32.773438 30.816406 C 32.851562 30.796875 32.914062 30.746094 32.953125 30.679688 L 33.5625 29.625 C 33.605469 29.554688 33.613281 29.472656 33.59375 29.398438 C 33.574219 29.320312 33.523438 29.257812 33.457031 29.21875 L 32.515625 28.675781 C 32.609375 28.371094 32.667969 28.050781 32.683594 27.71875 L 33.753906 27.53125 C 33.832031 27.515625 33.898438 27.472656 33.945312 27.40625 C 33.992188 27.34375 34.007812 27.261719 33.996094 27.1875 Z M 28.675781 29.09375 C 27.773438 29.09375 27.042969 28.363281 27.042969 27.457031 C 27.042969 26.554688 27.773438 25.824219 28.675781 25.824219 C 29.578125 25.824219 30.3125 26.554688 30.3125 27.457031 C 30.3125 28.363281 29.578125 29.09375 28.675781 29.09375 Z M 28.675781 29.09375 "/>
<path style=" stroke:none;fill-rule:nonzero;fill:rgb(0%,0%,0%);fill-opacity:1;" d="M 13.335938 19.058594 C 13.335938 18.671875 13.109375 18.320312 12.761719 18.15625 L 9.566406 16.671875 L 12.761719 15.1875 C 13.109375 15.027344 13.335938 14.671875 13.335938 14.289062 L 13.335938 14.261719 C 13.335938 13.921875 13.164062 13.609375 12.875 13.425781 C 12.71875 13.324219 12.53125 13.269531 12.339844 13.269531 C 12.195312 13.269531 12.050781 13.300781 11.921875 13.363281 L 6.816406 15.738281 C 6.46875 15.898438 6.242188 16.253906 6.242188 16.636719 L 6.242188 16.707031 C 6.242188 17.09375 6.46875 17.445312 6.816406 17.609375 L 11.925781 19.984375 C 12.054688 20.042969 12.195312 20.074219 12.34375 20.074219 C 12.53125 20.074219 12.714844 20.023438 12.875 19.917969 C 13.164062 19.734375 13.335938 19.421875 13.335938 19.082031 Z M 13.335938 19.058594 "/>
<path style=" stroke:none;fill-rule:nonzero;fill:rgb(0%,0%,0%);fill-opacity:1;" d="M 18.375 10.851562 C 18.1875 10.59375 17.886719 10.441406 17.570312 10.441406 L 17.546875 10.441406 C 17.113281 10.441406 16.734375 10.71875 16.601562 11.132812 L 13.234375 21.558594 C 13.140625 21.859375 13.195312 22.191406 13.378906 22.445312 C 13.566406 22.699219 13.867188 22.851562 14.183594 22.851562 L 14.207031 22.851562 C 14.640625 22.851562 15.019531 22.574219 15.152344 22.164062 L 18.515625 11.738281 C 18.613281 11.4375 18.558594 11.105469 18.375 10.851562 Z M 18.375 10.851562 "/>
<path style=" stroke:none;fill-rule:nonzero;fill:rgb(0%,0%,0%);fill-opacity:1;" d="M 24.9375 15.738281 L 19.832031 13.363281 C 19.703125 13.300781 19.558594 13.269531 19.414062 13.269531 C 19.222656 13.269531 19.039062 13.324219 18.878906 13.425781 C 18.589844 13.609375 18.417969 13.921875 18.417969 14.261719 L 18.417969 14.289062 C 18.417969 14.671875 18.644531 15.027344 18.992188 15.1875 L 22.1875 16.671875 L 18.992188 18.15625 C 18.644531 18.320312 18.417969 18.671875 18.417969 19.058594 L 18.417969 19.082031 C 18.417969 19.421875 18.589844 19.734375 18.878906 19.921875 C 19.039062 20.023438 19.222656 20.074219 19.414062 20.074219 C 19.558594 20.074219 19.699219 20.042969 19.832031 19.984375 L 24.9375 17.609375 C 25.285156 17.445312 25.511719 17.09375 25.511719 16.707031 L 25.511719 16.636719 C 25.511719 16.253906 25.285156 15.898438 24.9375 15.738281 Z M 24.9375 15.738281 "/>
</g>
</svg>
